/* XPM */
static char *f93e168806c246aeefe105cb63d2b9b34DWSGiK8nRb0Ne0L[] = {
/* columns rows colors chars-per-pixel */
"32 32 125 2 ",
"   c None",
".  c #10000E",
"X  c #10000F",
"o  c #120011",
"O  c #14182E",
"+  c #151E33",
"@  c #151F34",
"#  c #162237",
"$  c #102138",
"%  c #102238",
"&  c #173044",
"*  c #183144",
"=  c #173448",
"-  c #183448",
";  c #13394F",
":  c #18394C",
">  c #19394C",
",  c #123B50",
"<  c #1C4C5D",
"1  c #0D5167",
"2  c #0D5267",
"3  c #1C5161",
"4  c #1C5363",
"5  c #1D5363",
"6  c #206A78",
"7  c #21717D",
"8  c #21727D",
"9  c #21737D",
"0  c #21707E",
"q  c #21717F",
"w  c #21727F",
"e  c #117586",
"r  c #1C7185",
"t  c #197986",
"y  c #107589",
"u  c #197888",
"i  c #1D788C",
"p  c #1D798C",
"a  c #217481",
"s  c #227B86",
"d  c #227B87",
"f  c #227E86",
"g  c #247E89",
"h  c #007BE6",
"j  c #358693",
"k  c #24909C",
"l  c #24919D",
"z  c #1597AB",
"x  c #1598AA",
"c  c #2595A2",
"v  c #2595A3",
"b  c #2599A4",
"n  c #2599A5",
"m  c #22BCD0",
"M  c #21BED3",
"N  c #22BCD6",
"B  c #21BDD9",
"V  c #0081E6",
"C  c #0086E6",
"Z  c #0087E6",
"A  c #0086E7",
"S  c #0087E7",
"D  c #0088E6",
"F  c #0088E7",
"G  c #0089E7",
"H  c #008CE8",
"J  c #008EE8",
"K  c #0090E8",
"L  c #0095E9",
"P  c #15BBED",
"I  c #16BCEC",
"U  c #0DAAF7",
"Y  c #00ABF9",
"T  c #08B2F5",
"R  c #0CB2F5",
"E  c #0DB3F7",
"W  c #0EB9F7",
"Q  c #09B2F8",
"!  c #0DBAFB",
"~  c #0FBAFA",
"^  c #0CBAFC",
"/  c #33A0E6",
"(  c #68B7E6",
")  c #6AB6E6",
"_  c #22C3D6",
"`  c #2CCED6",
"'  c #22C2DC",
"]  c #2DD4DD",
"[  c #2DD5DD",
"{  c #2EDBDF",
"}  c #2EDDDF",
"|  c #2EDEDF",
" . c #2EDFDF",
".. c #1CDDE7",
"X. c #1CDDED",
"o. c #2EDBE2",
"O. c #2EDDE4",
"+. c #2EDFE6",
"@. c #1CF4FF",
"#. c #25E0E6",
"$. c #2EE2E6",
"%. c #2EE7E6",
"&. c #25E0EB",
"*. c #2FE1E9",
"=. c #31E6ED",
"-. c #23E8FF",
";. c #22E9FF",
":. c #25EBFF",
">. c #23F3FF",
",. c #25F2FF",
"<. c #25F3FF",
"1. c #26F6FF",
"2. c #26F7FF",
"3. c #26F8FF",
"4. c #26F9FF",
"5. c #62D6D9",
"6. c #62DBDF",
"7. c #6EDFF7",
"8. c #6ED7F8",
"9. c #48FFFF",
"0. c #6CFFFF",
"q. c #D6E5E5",
"w. c #C5FAED",
"e. c #D0FFF6",
"r. c #D0FBF8",
/* pixels */
"                                                                ",
"                                                                ",
"                                                                ",
"                                                                ",
"                                                                ",
"                                                                ",
"                                                                ",
"                        O O O O O O O                           ",
"                        O O O O O O O                           ",
"                      % 1 e t a f s 5 @                         ",
"                    o , x ..#.] %.$.c = X                       ",
"                  % ; j 6.0.9.;.<.<.B i > #                     ",
"              O O 1 z 5.w.e.7.R U E P _ n 5 O O                 ",
"              O O y X.0.r.q.( H h Z ^ 4.O.w O O                 ",
"              O O u &.9.8.) / H V D ^ 2.O.w O O                 ",
"              O O a ] ;.T H H L H K W :.` 6 O O                 ",
"              O O g =.@.Y h V J Z D ^ 4.O.a O O                 ",
"              O O s *.2.T Z D J Z G ! 2.o.w O O                 ",
"              O O 4 c N P ~ ! W ~ ! I m k < O O                 ",
"                  + - i ' 2.2.:.4.2.N r * +                     ",
"                    X > b | | ` | { k * X                       ",
"                      # 5 w 8 6 8 w < +                         ",
"                        O O O O O O O                           ",
"                        O O O O O O O                           ",
"                                                                ",
"                                                                ",
"                                                                ",
"                                                                ",
"                                                                ",
"                                                                ",
"                                                                ",
"                                                                "
};
