/* XPM */
static char *_e54dcfa1f9e4cdfcda916c350dff3acvPCCipQnH61QmsyE[] = {
/* columns rows colors chars-per-pixel */
"32 32 184 2 ",
"   c None",
".  c #010002",
"X  c #00000D",
"o  c #110000",
"O  c #000015",
"+  c #02041B",
"@  c #04091E",
"#  c #0B0218",
"$  c #21000C",
"%  c #060A20",
"&  c #0A0E23",
"*  c #0D1126",
"=  c #0C132A",
"-  c #12162C",
";  c #14182E",
":  c #161A31",
">  c #191D34",
",  c #171D3E",
"<  c #1D2136",
"1  c #1E2339",
"2  c #20243A",
"3  c #262A3E",
"4  c #4F000F",
"5  c #7A071F",
"6  c #46172D",
"7  c #1C2041",
"8  c #252A42",
"9  c #2A2E44",
"0  c #262B47",
"q  c #2C334D",
"w  c #2D3145",
"e  c #31354C",
"r  c #363A4F",
"t  c #383A4D",
"y  c #2D3351",
"u  c #3B3E54",
"i  c #333851",
"p  c #383E61",
"a  c #3D4153",
"s  c #3D4159",
"d  c #3F4863",
"f  c #41455D",
"g  c #46495E",
"h  c #484C5F",
"j  c #654055",
"k  c #464A62",
"l  c #4B4E62",
"z  c #464B6F",
"x  c #40476A",
"c  c #4D5164",
"v  c #46556D",
"b  c #4D516B",
"n  c #53566C",
"m  c #56596A",
"M  c #5A5D6B",
"N  c #4C5674",
"B  c #4D5A73",
"V  c #4F567D",
"C  c #5A5E79",
"Z  c #555975",
"A  c #725167",
"S  c #5D6178",
"D  c #6A6D7C",
"F  c #67697C",
"G  c #70717E",
"H  c #A83349",
"J  c #BE5F72",
"K  c #A66175",
"L  c #565D84",
"P  c #56608F",
"I  c #59618B",
"U  c #5D6480",
"Y  c #666A81",
"T  c #696E8B",
"R  c #666B85",
"E  c #6E7184",
"W  c #6C718B",
"Q  c #727584",
"!  c #71758F",
"~  c #797B88",
"^  c #636A94",
"/  c #676E98",
"(  c #6D7295",
")  c #757A94",
"_  c #757A99",
"`  c #7A7F99",
"'  c #757994",
"]  c #767CA3",
"[  c #797FA5",
"{  c #787FAA",
"}  c #8C798E",
"|  c #CB7182",
" . c #7D808E",
".. c #7E829B",
"X. c #75809B",
"o. c #7D82A7",
"O. c #7E84AB",
"+. c #858793",
"@. c #82869E",
"#. c #86889D",
"$. c #8E909D",
"%. c #8589A6",
"&. c #8C91AB",
"*. c #8691AB",
"=. c #9295A4",
"-. c #9C9EA7",
";. c #909EAF",
":. c #9698A8",
">. c #888EB4",
",. c #8389B0",
"<. c #8D93B4",
"1. c #8E98B1",
"2. c #959AB5",
"3. c #969BBC",
"4. c #9A9DBA",
"5. c #989BB6",
"6. c #9CA1BD",
"7. c #93A3B0",
"8. c #A8A8AD",
"9. c #A4A6B2",
"0. c #A1A4BE",
"q. c #A8A8BC",
"w. c #AAB2BD",
"e. c #B3B4BE",
"r. c #E48898",
"t. c #CF9CAA",
"y. c #E096A7",
"u. c #CCA6B8",
"i. c #9DA1C4",
"p. c #A1A5C1",
"a. c #A4A8C2",
"s. c #A9ADC7",
"d. c #AAAFCB",
"f. c #ACB0C3",
"g. c #AEB2CB",
"h. c #B9BBC6",
"j. c #B2B5CC",
"k. c #BDBEC8",
"l. c #B6B4C5",
"z. c #A5AAD0",
"x. c #AFBBD0",
"c. c #B2B6D2",
"v. c #BABDD4",
"b. c #B9BDD8",
"n. c #C1BED3",
"m. c #BFC0C9",
"M. c #ACC0D1",
"N. c #BFCBD7",
"B. c #BEC1DB",
"V. c #BCC0D0",
"C. c #BBC0E1",
"Z. c #C2C3CD",
"A. c #C3C5D5",
"S. c #C1C5DA",
"D. c #CCCEDC",
"F. c #C8C8D6",
"G. c #D9C9D3",
"H. c #CED0DE",
"J. c #D0D2DB",
"K. c #CACDE4",
"L. c #C5C8E1",
"P. c #CFD6E9",
"I. c #D2D3E4",
"U. c #DBDCE5",
"Y. c #D3D5E9",
"T. c #D6D9EB",
"R. c #DCDDEA",
"E. c #DED5E2",
"W. c #E6DAE4",
"Q. c #DFE0E7",
"!. c #DFE0E8",
"~. c #DCE3F3",
"^. c #E3E4EC",
"/. c #EAEAEE",
"(. c #E2E3E7",
"). c #E2E4F3",
"_. c #EBEDFB",
"`. c #EBECF0",
"'. c #EFF1F7",
"]. c #EEFFFF",
"[. c #E7F2F9",
"{. c #F6F6F6",
"}. c #F4F4FB",
"|. c #FDFDFF",
/* pixels */
"                    ; ; ; ; ; ; ; ; ; ; : ;                     ",
"                  > e f h l c h h l h h u 8                     ",
"                O 9 T 0.l.k.h.h.h.k.m.e.&.b -                   ",
"              > 9 Y s.).}.|.}.}.}.}.|._.I.&.k <                 ",
"            & e ! g.D./.^.^.^.^.^.^.^.).(.A.2.N <               ",
"            @ f 3.T.).`.^.Q.!.!.R.(.(.^./.).L.! 1 @             ",
"            @ u &.K.^.`.(.!.!.!.(.!.!.^./.R.v.T 1 @             ",
"            & i _ c.K.!.(.^.!.!.R.(.^.^.R.B.4.C < @             ",
"            * q L <.d.I.(./.!.Q.(.^.^.R.S.i.{ x > &             ",
"            & e ^ ] T &.A.).^.^.^.).!.f.) ( [ N < &             ",
"            % s <.` 9 k 6.T.!././.R.L.) 9 n 4.! 1 @             ",
"            % k 0.%.: = N 1.V.U.I.f._ q @ f 0.@.2 @             ",
"            % k 4.%.q + = v 2.B.j._ q @ & N 0.` 2 @             ",
"            % k 0.&.9 X $ j q.P.S.} 6 o # B s.@.2 @             ",
"            % k a.*.1 o 5 J G.].[.t.H 4 # v s.%.2 @             ",
"              e Y T d A | y.l.x.x.u.r.K l B W n >               ",
"                ; f ` v.W.A.o.P ^ 4.W.E.p.U 9 -                 ",
"                . u v.~.w.2.5.5.3.;.7.N.).#.% .                 ",
"            % O X m U.h.r c F.|.'.=.w Y (.9.> X % *             ",
"          < m Q E +.-.M + ; ~ 8.-.c O < +.-.Q G D a             ",
"        O a e.{.'.9.a @ % * : < > - * @ - D D.{.!. .- O         ",
"      3 l =.D.U.h.Q y 1 d n m M M m b y , k =.F.R.l.Q t         ",
"    ; h e.^.B.) e 7 V ] <.l.J.^.Q.A.0.O./ u 1 b 3.T.U.+.< ;     ",
"    - m U.|._.@.= ; ] C.I.Y.S.b.V.K.T.K.z.z + u j.|.|.9.< ;     ",
"    ; h Z.|.|.9.3 9 %.I./.A.[ L ^ 4.U.^.v.C - m J.|.}.$.< ;     ",
"    ; e Q -.-.D 2 > b #.a.s.>.{ O.4.f.4.E e ; a +.9.$.m > -     ",
"        > < < > : * - y L >.i.j.d.3.[ z > & ; : < < < >         ",
"          O + + & 8 f T ,.%.T F R _ ,.[ C i > % + O +           ",
"                % f &.b.c.) 9 + * l 5.B.g.T 2 @                 ",
"                  e F ` ! k ; X + 9 S ` ) b >                   ",
"                    : > > :         : > > ;                     ",
"                    ; ; ; ;         : - ; ;                     "
};
