/* XPM */
static char *ec1c34e9dd484276b214759ffbf6f4ccEW9HeEVbq7YoTPYg[] = {
/* columns rows colors chars-per-pixel */
"32 32 161 2 ",
"   c None",
".  c #00000D",
"X  c #000014",
"o  c #02041B",
"O  c #04091F",
"+  c #060A20",
"@  c #0A0E22",
"#  c #0C1025",
"$  c #0D122A",
"%  c #11162E",
"&  c #14182E",
"*  c #121631",
"=  c #141932",
"-  c #191E36",
";  c #1E2237",
":  c #1E233B",
">  c #21253C",
",  c #262A3E",
"<  c #292C3F",
"1  c #232741",
"2  c #252A44",
"3  c #2A2E44",
"4  c #272C48",
"5  c #292E49",
"6  c #2D3146",
"7  c #2C314D",
"8  c #313445",
"9  c #33374C",
"0  c #36394D",
"q  c #383C4F",
"w  c #2E3350",
"e  c #363A52",
"r  c #393E53",
"t  c #343B5E",
"y  c #3A3F5A",
"u  c #363D60",
"i  c #3C4057",
"p  c #3D425F",
"a  c #3D4366",
"s  c #3C426C",
"d  c #424559",
"f  c #46495B",
"g  c #494C5E",
"h  c #424661",
"j  c #454A65",
"k  c #4B4E60",
"l  c #464D6F",
"z  c #4F5264",
"x  c #515465",
"c  c #515469",
"v  c #55596C",
"b  c #484F71",
"n  c #484F78",
"m  c #4D537B",
"M  c #575A73",
"N  c #5A5E75",
"B  c #505679",
"V  c #50587F",
"C  c #5C607C",
"Z  c #565C85",
"A  c #5C6285",
"S  c #5E648A",
"D  c #5F6792",
"F  c #626680",
"G  c #656984",
"H  c #666B8D",
"J  c #6E7182",
"K  c #717484",
"L  c #646B94",
"P  c #696F95",
"I  c #6B7193",
"U  c #6D749E",
"Y  c #737794",
"T  c #767B96",
"R  c #787D96",
"E  c #747A9C",
"W  c #7A7E9B",
"Q  c #6C73A0",
"!  c #7178A6",
"~  c #757CA9",
"^  c #7D829C",
"/  c #7D83A7",
"(  c #7D83AB",
")  c #80849F",
"_  c #8C8F9B",
"`  c #8F919E",
"'  c #90929D",
"]  c #8286A2",
"[  c #8589A5",
"{  c #898DA5",
"}  c #8086AC",
"|  c #878BA8",
" . c #898DAA",
".. c #8E91AB",
"X. c #9194A0",
"o. c #9397AF",
"O. c #8187B1",
"+. c #848AB4",
"@. c #898EB0",
"#. c #878DB8",
"$. c #888FB9",
"%. c #8D92B3",
"&. c #9095B6",
"*. c #969AB3",
"=. c #989CB5",
"-. c #9499BB",
";. c #999EBE",
":. c #9DA2BE",
">. c #A1A4BD",
",. c #A6A9BF",
"<. c #ACAEBD",
"1. c #AEB0BE",
"2. c #9499C1",
"3. c #9DA2C0",
"4. c #A1A5C1",
"5. c #A5A9C4",
"6. c #A9ADC6",
"7. c #A6ABCA",
"8. c #AAAECA",
"9. c #AFB1C1",
"0. c #ADB1CB",
"q. c #B3B5C3",
"w. c #B6B8C2",
"e. c #BABBC4",
"r. c #B2B5CB",
"t. c #B7BACE",
"y. c #B9BBCF",
"u. c #B0B4D1",
"i. c #B5B9D2",
"p. c #BBBED5",
"a. c #BCBFD8",
"s. c #C7C8CF",
"d. c #C8C9CF",
"f. c #C2C4D5",
"g. c #C7C9D6",
"h. c #CBCCD3",
"j. c #C2C5DB",
"k. c #C5C8DD",
"l. c #CACCDB",
"z. c #CED0DB",
"x. c #D3D4DD",
"c. c #D8D9DF",
"v. c #C7C9E1",
"b. c #C9CCE2",
"n. c #CFD2EA",
"m. c #D3D5E1",
"M. c #DCDDE6",
"N. c #D1D4EB",
"B. c #DBDEF1",
"V. c #DFE0E7",
"C. c #DFE0E8",
"Z. c #DEE1F3",
"A. c #E4E5EC",
"S. c #E7E8EF",
"D. c #E9E9EF",
"F. c #E4E5F0",
"G. c #ECEDF0",
"H. c #EEEFFA",
"J. c #F2F3F5",
"K. c #F4F5FC",
"L. c #FDFDFE",
/* pixels */
"                    & & & & & & & & & & & &                     ",
"                    6 i d f f f f f f d i 3                     ",
"                X : A =.1.e.w.w.q.w.e.<.*.C ; X                 ",
"                > N >.B.H.L.K.K.K.K.L.H.B.:.M >                 ",
"            @ 6 G ,.g.A.F.S.S.A.A.S.D.A.A.g.>.C 3 @             ",
"            O e ..N.F.G.A.V.V.V.V.V.M.A.G.F.n.| e O             ",
"            + e ] b.A.J.A.M.M.M.A.M.M.A.J.A.v.^ 9 O             ",
"            O e [ p.p.l.M.A.A.A.V.A.A.M.l.p.p./ 9 O             ",
"            O r ..8.( &.l.J.D.A.A.D.J.l.%.} 0.{ e O             ",
"            + e ^ -.U / y.M.x.z.z.z.M.t./ Q 2.W 0 O             ",
"            @ 5 A +.%.:.6.r.0.6.6.0.r.0.:.%.( S 5 @             ",
"            # 2 m ( :.0.4.:.6.0.0.6.:.3.0.:.( n 1 #             ",
"            @ 2 m ( ;.6.3.0.l.V.V.l.0.:.6.;.( m 2 @             ",
"            # 4 Z +.:.6.:.0.z.V.V.l.0.>.6.:.( Z 4 @             ",
"            @ 5 A $.3.0.5.6.0.t.t.0.5.5.0.3.#.Z 4 @             ",
"            # > a I %.7.6.6.3.:.:.4.6.6.5.@.P a 1 #             ",
"                - y L 2.8.t.8.5.5.6.i.u.-.L p -                 ",
"                X & u S Y { &.-.-...| Y S t $ X                 ",
"            + X X + & > > y F ! ! A e > : % O X o O             ",
"            q z x d 2 * $ w H $.$.H 7 $ = 3 d x z q             ",
"        . 3 ` x.c.6.H a u P 6.m.m.,.H s s H 9.m.x._ , .         ",
"        3 K g.J.m.q.&.~ ~ ;.m.L.L.m.:.! ( %.q.M.J.g.J <         ",
"    & r ' g.j.o.v c  .7.3.r.m.G.D.m.0.:.7.| z v *.j.g.' q &     ",
"    & x x.L.B.T & * W 0.;.6.m.G.D.x.6.;.u.I $ = ^ Z.L.z.k &     ",
"    & z h.L.L.<.6 * H +.Q @.l.J.J.g. .U +.G & 8 <.L.L.h.g &     ",
"    & r ` d.h._ 6 & u Z L %.j.A.A.f.$.L Z t $ 0 ' d.s._ 0 &     ",
"        0 g g q ; # $ r W u.a.k.v.a.r.E t @ # > q g g q         ",
"        O o X O $ * & j  .5. .E R  .5.[ a & & $ O X o O         ",
"                @ 2 b Q +.E j 1 1 j E +.U l 1 #                 ",
"                @ 3 m L S a = X X - a S L m 1 #                 ",
"                    2 7 5 :         > 5 7 2                     ",
"                    & & & =         & * & &                     "
};
