/* XPM */
static char *_2c05d1124b548b99962af4145a212f3soGDo4CtALYFlqc1[] = {
/* columns rows colors chars-per-pixel */
"32 32 198 2 ",
"   c None",
".  c #000004",
"X  c #000015",
"o  c #01011D",
"O  c #0E131D",
"+  c #010122",
"@  c #02092B",
"#  c #090E2A",
"$  c #070826",
"%  c #140522",
"&  c #1C0023",
"*  c #1B0626",
"=  c #03152B",
"-  c #0E122C",
";  c #13132C",
":  c #14182E",
">  c #19152A",
",  c #181C30",
"<  c #24052A",
"1  c #2E082C",
"2  c #270129",
"3  c #33092C",
"4  c #3D0C22",
"5  c #211C2C",
"6  c #221A30",
"7  c #2F193C",
"8  c #19242C",
"9  c #1C2333",
"0  c #192439",
"q  c #27232A",
"w  c #352A29",
"e  c #252B35",
"r  c #2A2B35",
"t  c #232A38",
"y  c #262A36",
"u  c #2D3239",
"i  c #33353A",
"p  c #36393B",
"a  c #3B3B3C",
"s  c #303037",
"d  c #420E1D",
"f  c #53132D",
"g  c #5A132B",
"h  c #450E32",
"j  c #4A0F33",
"k  c #5B1330",
"l  c #511C36",
"z  c #4D102D",
"x  c #651A35",
"c  c #781D39",
"v  c #601721",
"b  c #443B34",
"n  c #443D37",
"m  c #66253B",
"M  c #6C253B",
"N  c #70263C",
"B  c #44433E",
"V  c #5D4129",
"C  c #645238",
"Z  c #6B5636",
"A  c #3E2C4B",
"S  c #573B50",
"D  c #782943",
"F  c #3B4D5D",
"G  c #334F61",
"H  c #454641",
"J  c #4A4A42",
"K  c #45484C",
"L  c #5D5948",
"P  c #5D5542",
"I  c #444954",
"U  c #4A504E",
"Y  c #625B44",
"T  c #66634B",
"R  c #68654C",
"E  c #6D6B4F",
"W  c #6A724D",
"Q  c #696958",
"!  c #6A7351",
"~  c #67745D",
"^  c #797553",
"/  c #435760",
"(  c #5F787D",
")  c #646A6C",
"_  c #657173",
"`  c #8D1F3C",
"'  c #8B243E",
"]  c #86233D",
"[  c #94263C",
"{  c #B73636",
"}  c #A32F38",
"|  c #CC3B3D",
" . c #D33D3C",
".. c #957736",
"X. c #916A30",
"o. c #A57630",
"O. c #DC413B",
"+. c #E5443A",
"@. c #EA453B",
"#. c #F1463C",
"$. c #FA493A",
"%. c #9D2A42",
"&. c #942641",
"*. c #8E2441",
"=. c #AB2E45",
"-. c #A32B44",
";. c #B42F48",
":. c #AF3143",
">. c #B23045",
",. c #BC3443",
"<. c #BA3048",
"1. c #C3324B",
"2. c #CC344C",
"3. c #C93843",
"4. c #DC3D41",
"5. c #D53946",
"6. c #8A7542",
"7. c #827C56",
"8. c #A5853F",
"9. c #BA8F3E",
"0. c #D5A23F",
"q. c #808058",
"w. c #8D865A",
"e. c #8F8857",
"r. c #938D5C",
"t. c #91945C",
"y. c #99965A",
"u. c #98904F",
"i. c #AA8944",
"p. c #B69448",
"a. c #B29D58",
"s. c #B4A35F",
"d. c #9B9C63",
"f. c #969663",
"g. c #8E9470",
"h. c #A39D63",
"j. c #A89F63",
"k. c #ADA466",
"l. c #A6A768",
"z. c #B0A767",
"x. c #B4AA65",
"c. c #B6AB69",
"v. c #B5AA68",
"b. c #BBB36C",
"n. c #BAB36B",
"m. c #B9BB70",
"M. c #C79D44",
"N. c #CAA750",
"B. c #E7B346",
"V. c #F3BD4A",
"C. c #F1B742",
"Z. c #E0AA40",
"A. c #C9BC6D",
"S. c #CAB968",
"D. c #CABE70",
"F. c #F9C54E",
"G. c #DBC768",
"H. c #CEC171",
"J. c #D7CB75",
"K. c #DAD67A",
"L. c #F6D967",
"P. c #E4D371",
"I. c #EBDC73",
"U. c #E4D479",
"Y. c #EADC7B",
"T. c #FFE76B",
"R. c #FFED74",
"E. c #F3E47F",
"W. c #FBE676",
"Q. c #FFFB7E",
"!. c #7C7C8B",
"~. c #7E8388",
"^. c #879D95",
"/. c #959C91",
"(. c #A4A69B",
"). c #AEB9AF",
"_. c #C5C28E",
"`. c #E1D891",
"'. c #FEED83",
"]. c #F5E783",
"[. c #FFF285",
"{. c #FFFA87",
"}. c #FFFE8B",
"|. c #FAF48A",
" X c #E6E294",
".X c #F4ED90",
"XX c #CDCFB2",
"oX c #FBFAB9",
"OX c #E5E4B6",
"+X c #B2BFC3",
"@X c #BAC7D0",
"#X c #C7D5C8",
"$X c #DBE2C8",
"%X c #FFFFC2",
"&X c #E8F1D2",
"*X c #ECF5E1",
"=X c #F5FCE5",
"-X c #FFFFF8",
/* pixels */
"                                                                ",
"                                                                ",
"    : : : : :                                     : : : : :     ",
"    B H r : -                                     - , i J a     ",
"> J h.k.L - @ = = = = = = = = = = = = = = = = = = @ , ^ c.r.i : ",
": E Y.'.7.- $ > 6 6 6 6 6 6 6 5 6 6 6 5 6 6 6 6 > + q j.{.J.J : ",
": E E.[.^ # < m M M m m m m m m m m m m m m M M l * 9 l.}.J.J : ",
": R U.E.! - h %.,.=.=.=.=.=.=.=.=.=.=.=.=.=.:.<.*.1 9 t.'.D.B : ",
": T P.I.W ; j =.2.<.<.<.<.<.<.<.<.;.;.<.<.<.1.2.*.1 9 t.R.A.B : ",
": R P.I.W : h %.<.;.=.=.=.=.=.=.=.=.;.=.=.=.;.<.*.1 8 t.R.A.B : ",
": Q `. X~ ; z } 3.1.<.,.,.,.,.,.,.,.,.,.,.,.3.3.[ 3 8 g..X_.H : ",
"- ) OX&X_ > g | #.+.O.O.O.O.O.O.O.O.O.O.O.O.@.@.{ 4 0 ^.&XXXI : ",
": ) $X*X!.$ v O.$.@.+.+.+.+.+.+.+.+.+.+.+.+.#.$.{ d 0 ^.=X#XI ; ",
"; )  XOX~ = f { +. .| 5.4.4.4.4.4.4.4.4. .3.O.4.} 3 0 g.oX_.K : ",
": T U.Y.! - h -.<.;.>.>.>.>.>.=.>.;.>.:.=.=.,.<.' 1 8 f.'.A.H : ",
": T P.I.! - h -.2.<.-.c g f k k k k z k ] ;.1.1.*.3 9 t.W.A.B : ",
": R U.Y.! ; h =.5.2.[ z % o % % % % o * x ;.5.2.&.3 9 t.'.A.H : ",
": T U.Y.E # 2 c [ ] D S G G / / / / G F S D ` ` x 2 : t.'.A.H : ",
": R U.Y.R + o < 2 & S !.@X@X#X#X#X#X@X)._ 7 & < * o # r.'.D.H : ",
": T U.E.w.e , e : O U ).=X-X=X*X*X=X-X=X/.p O 8 0 , a k.'.A.H : ",
": T Y.}.K.k.l.l.u...p. XoXXX/.~.~.(.OXoX`.8...y.l.h.c.].}.D.H : ",
": L H.}.}.'.[.'.L.V.F.R.E.t.r $ + K z.{.T.B.F.T.|.[.|.}.{.z.H : ",
"8 A E f.l.n.b.n.a.8.9.R.Q.e.o . . q x.Q.L.9.8.s.b.b.c.l.t.T y : ",
": , 0 t u p a p r q C K.{.h.> X o i A.{.x.b 5 s a A p u 0 0 : : ",
": 8 w q O o o + + o , 7.b.f.L B J Q k.c.T @ o + o o + > w q > : ",
": b X.X.b X o + o + @ ; H w.S.`.K.S.^ i # + + + + o o V o.X.w : ",
": Z B.F.6.r 9 i i i r - r 7.U.|..XH.R , : u i i u 9 a i.F.M.b : ",
": C G.R.J.k.k.z.v.v.k.d.h.r.w.7.q.e.r.d.d.z.c.c.z.l.c.I.R.N.B : ",
": L A.}.}.[.'.'.'.'.[.}.E.e.y + + a k.{.}.'.'.'.'.'.'.}.{.k.B : ",
": C S.W.J.x.x.c.c.c.n.m.z.L # o o 9 ^ n.m.c.c.c.c.z.c.K.W.a.n : ",
": C N.B.6.u t i i p i p i y : # - : y i p i i p i t n i.V.p.b : ",
"- C Z.Z.Z - @ : : : : : : ; : : : : : : : : : : - @ 5 ..C.9.b : "
};
