/* XPM */
static char *dddd00e0d88f49d3d2f8c3a0eb647710tltBdC9I78fhAzRE[] = {
/* columns rows colors chars-per-pixel */
"32 32 177 2 ",
"   c #C8D45D",
".  c #000009",
"X  c #00001C",
"o  c #070815",
"O  c #1A141F",
"+  c #000224",
"@  c #0C0E25",
"#  c #01072B",
"$  c #020A2B",
"%  c #090F2C",
"&  c #050922",
"*  c #1B072A",
"=  c #17082C",
"-  c #03152B",
";  c #0D142D",
":  c #13162D",
">  c #14182E",
",  c #1B192F",
"<  c #151B30",
"1  c #1A1D31",
"2  c #0A1537",
"3  c #2A052B",
"4  c #36092D",
"5  c #2A1B31",
"6  c #211830",
"7  c #1F2232",
"8  c #2A272F",
"9  c #252D35",
"0  c #2C2B33",
"q  c #24293A",
"w  c #262936",
"e  c #302C30",
"r  c #34363A",
"t  c #383537",
"y  c #490F31",
"u  c #4F1032",
"i  c #4E1835",
"p  c #511033",
"a  c #6F1C39",
"s  c #7A1E3B",
"d  c #453D37",
"f  c #622139",
"g  c #77273D",
"h  c #7C283E",
"j  c #3C413E",
"k  c #43423F",
"l  c #4B473A",
"z  c #514333",
"x  c #5B4B34",
"c  c #604E34",
"v  c #665335",
"b  c #6A5636",
"n  c #6A593A",
"m  c #796D3E",
"M  c #262E46",
"N  c #2B3044",
"B  c #363B4C",
"V  c #454540",
"C  c #494841",
"Z  c #514F44",
"A  c #435144",
"S  c #545245",
"D  c #5A5847",
"F  c #5F5D59",
"G  c #605A46",
"H  c #6A664D",
"J  c #6C684E",
"K  c #686249",
"L  c #776E42",
"P  c #6D6A50",
"I  c #746F51",
"U  c #787352",
"Y  c #565C68",
"T  c #6E7166",
"R  c #757B7F",
"E  c #81293F",
"W  c #89233E",
"Q  c #8C6D36",
"!  c #8E6F38",
"~  c #856938",
"^  c #8E723D",
"/  c #967539",
"(  c #A27D3B",
")  c #982840",
"_  c #A82E44",
"`  c #A72B42",
"'  c #B63147",
"]  c #BB3248",
"[  c #C43349",
"{  c #CA3349",
"}  c #DB374D",
"|  c #D5364C",
" . c #877749",
".. c #827D54",
"X. c #827D58",
"o. c #7F8257",
"O. c #7F8558",
"+. c #AC863C",
"@. c #B2893C",
"#. c #B18639",
"$. c #BF923C",
"%. c #C7983E",
"&. c #D19E3C",
"*. c #DCA53D",
"=. c #D5A23E",
"-. c #ECAE3A",
";. c #EEB23F",
":. c #8B855B",
">. c #87885C",
",. c #948D5D",
"<. c #938553",
"1. c #96905F",
"2. c #9A925E",
"3. c #B18E42",
"4. c #BD9646",
"5. c #B3A259",
"6. c #969060",
"7. c #9D9560",
"8. c #9A9C7F",
"9. c #A29962",
"0. c #A9A164",
"q. c #ACA867",
"w. c #ACAA6C",
"e. c #A3A468",
"r. c #B4AC6A",
"t. c #BBAD67",
"y. c #AFB26C",
"u. c #BDB36D",
"i. c #B0B16C",
"p. c #DFAA42",
"a. c #D5A947",
"s. c #D0A955",
"d. c #E5AD40",
"f. c #EEB441",
"g. c #E8B549",
"h. c #F1BC49",
"j. c #F4B842",
"k. c #C2B66D",
"l. c #C7BC6E",
"z. c #D7BD61",
"x. c #C9BD70",
"c. c #FFC543",
"v. c #F3C253",
"b. c #D1C66E",
"n. c #D7CD76",
"m. c #DACD77",
"M. c #D7D37A",
"N. c #F8DA6D",
"B. c #F2D766",
"V. c #E4D67B",
"C. c #EEDE7C",
"Z. c #EADC72",
"A. c #E8CB67",
"S. c #F3E66E",
"D. c #EFE07D",
"F. c #F6E378",
"G. c #717B89",
"H. c #8A949D",
"J. c #A2A89E",
"K. c #A5AFB0",
"L. c #ABB5B7",
"P. c #E0DD80",
"I. c #EEE281",
"U. c #FBEB82",
"Y. c #F2E985",
"T. c #FDF185",
"R. c #F4F588",
"E. c #FDF289",
"W. c #FFFD8B",
"Q. c #FFF987",
"!. c #FFFB94",
"~. c #C2C7AE",
"^. c #FFFFA9",
"/. c #FFFFB7",
"(. c #E1E8C9",
"). c #FFFFC0",
"_. c #FDFFE7",
/* pixels */
"      > > : >                                   < : > >         ",
"    0 k k w ;                                   ; 1 r C r       ",
"  > S r.0.k $ @ > < : & X & > > > @ X X ; < : : # w ,.k.I > >   ",
"  > I T.D.S + # ; % : N B N > : : q B B 1 @ ; % + e x.W.9.> >   ",
"  > I U.V.k X X + X 2 G.L.R 1 o @ Y K.H.M + + + X 1 u.Q.9.> >   ",
"  > J C.V.H 1 w 0 O d ~._.J.< . # O._.(.F O 8 9 , C l.U.,.> >   ",
"  > P I.W.n.t.u.t.@.4.W.).H.$ . # T /.^.s.+.5.u.r.x.Q.W.,.> >   ",
"  > D x.R.T.U.E.F.v.f.B.S.<.w ; : P m.S.h.h.N.U.T.U.R.V.U > >   ",
"  > r J >.:.6.6.,. .Q m  .1.0.e.e.2...L Q  .<.6.1.,.>.U V : :   ",
"  > > : : : : : : : : + > :.F.!.Q.0.t + @ : : : > : : : : < <   ",
"  > % + + + + # + # # + $ S 9.w.q.H : + # # # + + + + + # > :   ",
"  > ; ; ; : > < > > : : > > 7 7 7 1 > : : : > > > > ; ; ; > >   ",
"  < t v c 8 ; ; > > > > > % + + + $ : > < > > : @ 7 z b d > >   ",
"  : x %.%.d $ % > > > > > > : : : > > > > > > ; $ 0 ( =.~ : >   ",
"  : n j.-.z $ % > > > > > > > > > > > > > > > ; # e %.c./ > >   ",
"  < b -.=.z $ % > > > > > > > > : > > > > > > : # 0 @.j./ > >   ",
"  : v p.&.l # % > > > > > > > > > > > > > > > ; $ 0 @.f.! > >   ",
"  : v =.&.z # % > > > > > > > > > > > > > > > ; $ 0 #.f.! : >   ",
"  > v -.&.z $ - ; > ; > > ; ; ; ; ; : : ; ; : ; $ 0 #.;.! > >   ",
"  > v *.&.z $ $ - - - - - - - - - - - - - - - $ $ 0 #.-.Q > >   ",
"  > n d.a.l # : 8 5 5 5 5 5 5 5 8 5 5 5 5 5 e 5 $ 0 3.h.^ > :   ",
"  > H A.z.l = i h h g g g g g g g g g g g g E f * 0 5.N.<.: >   ",
"  , H P.M.A * s [ [ ' ' ' ' ' ' ' ' ' ' ' [ { W 4 9 i.U.2.> >   ",
"  : I I.M.A * W } | { { { { { { { { { { { { } ` 4 9 i.E.6.> >   ",
"  > J C.n.A * a ' ' _ _ _ _ ` _ _ ` ` ` _ _ ' ) 3 9 i.U.2.: :   ",
"  > I P.n.r + 3 p y y y y y y y y y y y y y y 4 + 7 q.T.2.: >   ",
"  > J C.m.Z + & < : ; ; : : : : : : : : > : : @ + r r.U.2.> >   ",
"  > H V.Y.w.X.X.O.U >.>.O.O.O.O.O.O.O.O.>.O.O.o.U 7.P.U.:.> >   ",
"  < D m.W.T.U.F.U.U.U.U.U.U.U.U.U.U.U.U.U.U.U.U.U.U.W.Y.X.: <   ",
"  < G z.F.b.u.k.k.k.k.k.k.k.k.k.k.k.k.k.k.k.k.k.u.x.Z.A. .: >   ",
"  > v p.a.n 9 r r r r r r r r r r r r r r r r r w l 4.h.^ > >   ",
"  > v *.a.l # % > > > > > : > > > > > > : < : ; # 0 @.f.! > >   "
};
