/* XPM */
static char *b1324334767146d4a376db02f9677906XQTLFiBdqfTruXi4[] = {
/* columns rows colors chars-per-pixel */
"32 32 196 2 ",
"   c #C8D45D",
".  c #000017",
"X  c #01011C",
"o  c #000522",
"O  c #020A24",
"+  c #0C0E25",
"@  c #020F28",
"#  c #0C122A",
"$  c #0C1227",
"%  c #111429",
"&  c #15192E",
"*  c #1A1A2E",
"=  c #060E32",
"-  c #0B1A3F",
";  c #01123A",
":  c #161A31",
">  c #1B1C31",
",  c #2A192B",
"<  c #3E1E2D",
"1  c #211E32",
"2  c #2B1B30",
"3  c #1D2034",
"4  c #1D223A",
"5  c #3A212E",
"6  c #232334",
"7  c #2A2738",
"8  c #2B2A3B",
"9  c #262437",
"0  c #322A3A",
"q  c #3B2333",
"w  c #2F303E",
"e  c #39333F",
"r  c #492B39",
"t  c #522E39",
"y  c #592935",
"u  c #48313C",
"i  c #5C333B",
"p  c #69353E",
"a  c #642A3B",
"s  c #121F44",
"d  c #1A2A54",
"f  c #142652",
"g  c #1D2545",
"h  c #252A44",
"j  c #252C4C",
"k  c #2A2E4A",
"l  c #2B2B43",
"z  c #302D45",
"x  c #2D324E",
"c  c #293044",
"v  c #3B3341",
"b  c #3F3B45",
"n  c #202E53",
"m  c #263258",
"M  c #2B395D",
"N  c #2A3455",
"B  c #343B5C",
"V  c #393E5D",
"C  c #373954",
"Z  c #443C4B",
"A  c #573544",
"S  c #413E55",
"D  c #5E3E54",
"F  c #743440",
"G  c #3C405E",
"H  c #1A5B73",
"J  c #3D4262",
"K  c #394965",
"L  c #3D657A",
"P  c #53444B",
"I  c #5B464F",
"U  c #544A55",
"Y  c #5E4E51",
"T  c #59515A",
"R  c #4C464E",
"E  c #78474C",
"W  c #674654",
"Q  c #7A4C53",
"!  c #6F5757",
"~  c #635258",
"^  c #785D5A",
"/  c #71605F",
"(  c #424564",
")  c #4C4B64",
"_  c #514F69",
"`  c #495465",
"'  c #465666",
"]  c #5B5566",
"[  c #625C6E",
"{  c #685467",
"}  c #735C6B",
"|  c #466A7C",
" . c #6E616F",
".. c #78626A",
"X. c #786B79",
"o. c #7F707F",
"O. c #8B3B43",
"+. c #834C4D",
"@. c #83454C",
"#. c #944049",
"$. c #8E4C56",
"%. c #9B4E56",
"&. c #8A5253",
"*. c #955457",
"=. c #A65B55",
"-. c #98635F",
";. c #B5655C",
":. c #A7605C",
">. c #9A5C66",
",. c #A25F68",
"<. c #876B65",
"1. c #936D69",
"2. c #95776D",
"3. c #876E75",
"4. c #947974",
"5. c #8F7177",
"6. c #B46967",
"7. c #A46A73",
"8. c #A17C74",
"9. c #B57579",
"0. c #A66A63",
"q. c #CA7163",
"w. c #C37368",
"e. c #D7786B",
"r. c #C5726B",
"t. c #988277",
"y. c #A48376",
"u. c #B3897A",
"i. c #B8927E",
"p. c #D98576",
"a. c #D2907A",
"s. c #C28774",
"d. c #E38676",
"f. c #E5907D",
"g. c #517995",
"h. c #797586",
"j. c #857682",
"k. c #967D81",
"l. c #579CB4",
"z. c #56A0B7",
"x. c #58B4C6",
"c. c #988186",
"v. c #A38482",
"b. c #AC8C87",
"n. c #B88E80",
"m. c #A99784",
"M. c #BB9284",
"N. c #BB948A",
"B. c #B69590",
"V. c #9EA4B3",
"C. c #ADAFBB",
"Z. c #C98F8D",
"A. c #C9998E",
"S. c #D19E8B",
"D. c #C89E90",
"F. c #E99C85",
"G. c #CAA189",
"H. c #D5A48C",
"J. c #D4AB99",
"K. c #DBB499",
"L. c #EDA78D",
"P. c #F1A98B",
"I. c #E3AD92",
"U. c #E4BC9E",
"Y. c #EBBB9C",
"T. c #E6B79A",
"R. c #F7B696",
"E. c #FDBC9D",
"W. c #F6B89B",
"Q. c #C9B1B9",
"!. c #F1BFA3",
"~. c #F9BDA1",
"^. c #E7BDA1",
"/. c #E6C6A7",
"(. c #FCC6A4",
"). c #FDCBA6",
"_. c #F6C6A3",
"`. c #FCD0AB",
"'. c #FFD9AE",
"]. c #FFDCB2",
"[. c #FFD7B1",
"{. c #FFE4B4",
"}. c #FFE6BA",
"|. c #FFEDBE",
" X c #9BB8C7",
".X c #BABECB",
"XX c #CFB8C1",
"oX c #B4E9F3",
"OX c #D8C7CB",
"+X c #C8C9D6",
"@X c #E1CEC3",
"#X c #E0D1DA",
"$X c #E7E7DA",
"%X c #E4E6E5",
"&X c #FDFFFF",
"*X c #F3F9FD",
/* pixels */
"                                                                ",
"                    : : : : & & : : : : : :                     ",
"                  & > h h h h h h h h h h 4 &                   ",
"                % : x G J V V V V V V J J x > #                 ",
"              & 4 c V ( J J J J J J J ( ( J x 4 :               ",
"            # & k J G B J G J V V V G V B J J x : &             ",
"            % & x J M m B J J G G G G B m M ( C : &             ",
"            % : k G ( ( V B B B B B B G G ( ( x : #             ",
"            % & g ( k.b.] d d m m d f ) v.k._ g : %             ",
"            # # - ) J.).v.J J ) ) J V 5.(.T.[ s # #             ",
"              o ; ) J.{.).G.N.N.N.N.D.!.}.^.[ s o O             ",
"            6 7 j ( y.K.Y.E.(.`.).).E.Y.K.b._ k 8 6             ",
"          & ^ i.3.B C U ~ 5.I.'.].Y.8.~ U S B  .i.<.6           ",
"        o * u.[.B.M j k = z M.].{.G.S = l N d k.`.S.7 o         ",
"        o > i.].b.M 3.u.v > n.}.|.A.8 9 8.4.M j.].H.8 o         ",
"          * <.H.3.{ K._.I # 1.(.(.u.* v T._.} ..H.2.6           ",
"            7 Z &.r.(./.R X E d.d.&.X w K.`.p.&.P 8             ",
"              X < =.F.I.<.A 1.e.d.0.I / H.L.;.r X X             ",
"              . . , *.p.L.K.Y.R.E.Y.T.I.f.=.5 . . O             ",
"            0 U ` ` W =.F.~.R.P.P.R.E.F.;.E ) ' T e             ",
"          + ^ U.$X+Xj.a @.7.r.q.q.q.6.*.i ...X%X/.1.%           ",
"        7 ~ s.R./. X[ q y $.9.Z.Z.9.%.a < ] V.OX~.a.! 8         ",
"      4 ..I.P.w.W c 8 t F >.Q.%X%XQ.7.p t 0 h I ;.L.T.2.9       ",
"      6 2.}.'.p.t . 2 E O.,.XX&X&X#X7.#.@.q . 5 w.).|.M.8       ",
"      6 <.`.|.Y.! + r %.O.>.XX*X&X+X7.#.%.A + P I.|.].y.7       ",
"      > P 4.m.t.R & , A D X.V.oXoX Xh.W A q # b 4.m.y.~ 3       ",
"          > 3 4 & & @ 3 K g.l.x.x.z.g.K > # % * 3 3 3 :         ",
"          O O X O * u E 3.j.| H H | h.5.Q t 1 @ O X O           ",
"                @ 3 E q.e.:.u @ O 0 *.e.e.&.7 @                 ",
"                  > A E +.p ,     1 i @.+.A >                   ",
"                    * 6 6 *         > 1 1 >                     ",
"                                                                "
};
