/* XPM */
static char *_36f956f82a0476babd3714a5a711511i384Jw0J45KPg6jC[] = {
/* columns rows colors chars-per-pixel */
"32 32 84 1 ",
"  c #C8D45D",
". c #150A1E",
"X c #160E21",
"o c #171123",
"O c #191625",
"+ c #1B1F26",
"@ c #1B1B2C",
"# c #1C1E31",
"$ c #1C2227",
"% c #1C212C",
"& c #1D2332",
"* c #1F2936",
"= c #202D2F",
"- c #25352C",
"; c #2D3F2D",
": c #202D33",
"> c #212D3A",
", c #223136",
"< c #22323C",
"1 c #253A3E",
"2 c #2E412C",
"3 c #29443F",
"4 c #2E563D",
"5 c #2F593E",
"6 c #305B3D",
"7 c #3F723E",
"8 c #41753D",
"9 c #243740",
"0 c #263B42",
"q c #294545",
"w c #29454B",
"e c #2B4C4D",
"r c #2F5B42",
"t c #2D524D",
"y c #2E594F",
"u c #305C44",
"i c #315B4F",
"p c #2C4E51",
"a c #2E5453",
"s c #2F5954",
"d c #315C53",
"f c #315E58",
"g c #316145",
"h c #336649",
"j c #346A48",
"k c #39754F",
"l c #3B7D4F",
"z c #336453",
"x c #366C52",
"c c #356C59",
"v c #367252",
"b c #397551",
"n c #377951",
"m c #3A7C52",
"M c #37705A",
"N c #387259",
"B c #3A7C58",
"V c #4E823A",
"C c #548A37",
"Z c #528639",
"A c #64AD3F",
"S c #67B13D",
"D c #69B23C",
"F c #6CBB3F",
"G c #3D824E",
"H c #3F894E",
"J c #3D8251",
"K c #3F8A54",
"L c #42864C",
"P c #458A4B",
"I c #498E4A",
"U c #4E9447",
"Y c #47904F",
"T c #4D944C",
"R c #569C45",
"E c #599F43",
"W c #408B54",
"Q c #5BA242",
"! c #5CA946",
"~ c #58A549",
"^ c #64AD40",
"/ c #66B443",
"( c #69B641",
") c #6AB840",
/* pixels */
"                                ",
"          :ooOOOOOOoo>          ",
"          1,-22222;--0          ",
"      .*esyg8ZCZZCV7gsse&.      ",
"     o@<tcmY!(F(FF/~YBce>@o     ",
"    o#9ezJU!/(D()D//!Umse9@.    ",
"   X@9acnPQAS^^A^^^SARPnct<@.   ",
"  O@<tcnmLUQ^^DDSSA^QUPJBxe<@o  ",
" X@0axmmGllLRADDSD^RLlGGJmxa9O. ",
" @1aMmJGlmvlIEAEQQRIlxkklmJce<@ ",
" 0yxmmGllllmHPPPPPLLnvzzvGJkxt0 ",
"<acmHllllGlklkknmknJJjaaxGHGnce ",
"<aMBLJlllkxhvnmnnnnllxaaxGPHBMp>",
"<tcbGGllGvdaxmHllllGGxddjlHlbzw>",
"<ezzxkGHHksazlGllllGlkxzxxxxzfe*",
"<efsdvGHGvsazlGllllllllvzsadffe:",
"<effdxvkbxzdxlGlnllklGHlxdsszfe:",
"<azxxjdsdzjbklGGGGlllGGmkxvxxzw*",
"<ecmlxsasdbHHmlkkllGmlkkGGGGBze*",
"<exmGkxzzxkGGlkzxvlGmmjxbGHGbzw*",
"<exbGllklklGGlxddvlGlvddxlHlNzp>",
"<aMnGGGGGGllGlxaavHLGxaaxlHGnce>",
">sMBGGGlllllGmhadkHHHxaaxlHHncp ",
" wdxmJllllllGmxzdxbbbxdzklLBxs0 ",
" :0dMBLGllllllkbjzfddzxkllWMa1# ",
" X#0dxlmllmGllGGbzapdzkHLlxd9@. ",
"  O:0exnKWWJLGGHmbxxxBWWmhe<#o  ",
"   X@0dxJJJGJmlllllmmHJmMa9@X   ",
"    O9adu54uhxvbvbbjg66uda>o    ",
"       e,$+:qdzfzziq:$$,e       ",
"        @..@1sfddft<O..:        ",
"                                "
};
